<?xml version="1.0" encoding="UTF-8" standalone="no"?>
<!-- Created with Inkscape (http://www.inkscape.org/) -->

<svg
   width="264.58344mm"
   height="102.47656mm"
   viewBox="0 0 264.58344 102.47656"
   version="1.1"
   id="svg1035"
   inkscape:version="1.1 (c68e22c387, 2021-05-23)"
   sodipodi:docname="Viettel Post logo.svg"
   xmlns:inkscape="http://www.inkscape.org/namespaces/inkscape"
   xmlns:sodipodi="http://sodipodi.sourceforge.net/DTD/sodipodi-0.dtd"
   xmlns="http://www.w3.org/2000/svg"
   xmlns:svg="http://www.w3.org/2000/svg">
  <sodipodi:namedview
     id="namedview1037"
     pagecolor="#ffffff"
     bordercolor="#666666"
     borderopacity="1.0"
     inkscape:pageshadow="2"
     inkscape:pageopacity="0.0"
     inkscape:pagecheckerboard="0"
     inkscape:document-units="mm"
     showgrid="false"
     inkscape:zoom="1"
     inkscape:cx="286.5"
     inkscape:cy="153.5"
     inkscape:window-width="1920"
     inkscape:window-height="1002"
     inkscape:window-x="-8"
     inkscape:window-y="-8"
     inkscape:window-maximized="1"
     inkscape:current-layer="layer1" />
  <defs
     id="defs1032">
    <clipPath
       clipPathUnits="userSpaceOnUse"
       id="clipPath856">
      <path
         d="M 0,841.89 H 595.276 V 0 H 0 Z"
         id="path854" />
    </clipPath>
  </defs>
  <g
     inkscape:label="Layer 1"
     inkscape:groupmode="layer"
     id="layer1"
     transform="translate(-71.759628,-108.15412)">
    <g
       id="g850"
       transform="matrix(1.9715752,0,0,-1.9715752,-727.68257,1636.1663)">
      <g
         id="g852"
         clip-path="url(#clipPath856)">
        <g
           id="g858"
           transform="translate(503.42,733.249)">
          <path
             d="m 0,0 v -6.164 h 2.871 c 0.481,0 0.894,0.057 1.239,0.17 0.346,0.113 0.619,0.263 0.821,0.45 0.201,0.187 0.361,0.433 0.478,0.738 0.117,0.306 0.192,0.612 0.225,0.918 0.032,0.305 0.048,0.673 0.048,1.103 0,0.543 -0.032,0.993 -0.097,1.35 C 5.52,-1.078 5.396,-0.739 5.214,-0.416 5.031,-0.093 4.746,0.144 4.354,0.297 3.964,0.45 3.469,0.527 2.871,0.527 H 0.605 C 0.201,0.527 0,0.351 0,0 m 0,-7.319 v -2.886 H -1.641 V 0.271 c 0,0.94 0.567,1.411 1.7,1.411 h 3.105 c 1.574,0 2.675,-0.371 3.299,-1.114 0.626,-0.74 0.938,-1.859 0.938,-3.353 0,-1.505 -0.312,-2.637 -0.938,-3.396 C 5.839,-6.939 4.738,-7.319 3.164,-7.319 Z"
             style="fill:#000000;fill-opacity:1;fill-rule:nonzero;stroke:none"
             id="path860" />
        </g>
        <g
           id="g862"
           transform="translate(513.828,730.464)">
          <path
             d="m 0,0 c 0,-1.279 0.271,-2.18 0.81,-2.699 0.541,-0.522 1.468,-0.781 2.783,-0.781 1.315,0 2.243,0.259 2.782,0.781 C 6.917,-2.18 7.187,-1.279 7.187,0 7.187,1.268 6.92,2.154 6.386,2.658 5.852,3.161 4.922,3.414 3.593,3.414 2.265,3.414 1.334,3.161 0.801,2.658 0.267,2.154 0,1.268 0,0 m 8.905,0 c 0,-1.687 -0.414,-2.881 -1.24,-3.582 -0.827,-0.703 -2.184,-1.053 -4.072,-1.053 -1.887,0 -3.244,0.35 -4.071,1.053 -0.827,0.701 -1.24,1.895 -1.24,3.582 0,1.675 0.413,2.855 1.24,3.541 0.827,0.685 2.184,1.027 4.071,1.027 1.888,0 3.245,-0.342 4.072,-1.027 C 8.491,2.855 8.905,1.675 8.905,0"
             style="fill:#000000;fill-opacity:1;fill-rule:nonzero;stroke:none"
             id="path864" />
        </g>
        <g
           id="g866"
           transform="translate(524.119,725.93)">
          <path
             d="m 0,0 v 1.155 h 5.878 c 0.833,0 1.25,0.379 1.25,1.137 0,0.16 -0.02,0.297 -0.059,0.417 C 7.03,2.828 6.942,2.933 6.805,3.022 6.668,3.113 6.559,3.187 6.474,3.244 6.388,3.3 6.213,3.365 5.946,3.439 5.68,3.512 5.481,3.563 5.351,3.592 5.22,3.62 4.967,3.673 4.589,3.752 L 2.695,4.161 C 1.679,4.375 0.95,4.678 0.508,5.068 0.065,5.459 -0.156,6.022 -0.156,6.758 -0.156,8.253 0.775,9 2.636,9 H 8.241 V 7.846 H 2.813 C 2.331,7.846 1.988,7.763 1.787,7.599 1.585,7.435 1.484,7.155 1.484,6.758 1.484,6.305 1.637,5.98 1.943,5.783 2.249,5.583 2.741,5.412 3.417,5.264 L 5.468,4.805 C 6.105,4.669 6.584,4.553 6.904,4.458 7.222,4.362 7.557,4.22 7.909,4.034 8.26,3.847 8.504,3.611 8.641,3.328 8.778,3.046 8.846,2.694 8.846,2.276 8.846,1.529 8.654,0.962 8.27,0.578 7.886,0.192 7.226,0 6.288,0 Z"
             style="fill:#000000;fill-opacity:1;fill-rule:nonzero;stroke:none"
             id="path868" />
        </g>
        <g
           id="g870"
           transform="translate(539.683,725.93)">
          <path
             d="m 0,0 h -1.23 c -1.225,0 -2.08,0.237 -2.568,0.713 -0.489,0.476 -0.733,1.2 -0.733,2.174 V 7.846 H -6.054 V 9 h 1.523 v 2.887 h 1.64 V 9 H 0 V 7.846 H -2.891 V 2.972 c 0,-0.68 0.167,-1.152 0.498,-1.419 0.333,-0.266 0.902,-0.398 1.71,-0.398 H 0 Z"
             style="fill:#000000;fill-opacity:1;fill-rule:nonzero;stroke:none"
             id="path872" />
        </g>
        <g
           id="g874"
           transform="translate(436.509,769.489)">
          <path
             d="m 0,0 h -2.234 c -0.889,0 -1.611,-0.721 -1.611,-1.61 v -16.548 c 0,-0.889 0.722,-1.609 1.611,-1.609 H 0 c 0.889,0 1.61,0.72 1.61,1.609 V -1.61 C 1.61,-0.721 0.889,0 0,0"
             style="fill:#ec1b2e;fill-opacity:1;fill-rule:nonzero;stroke:none"
             id="path876" />
        </g>
        <g
           id="g878"
           transform="translate(428.474,769.489)">
          <path
             d="m 0,0 c -1.408,0 -2.591,-0.844 -3.164,-2.053 l -5.933,-12.605 c -0.14,-0.298 -0.419,-0.783 -0.653,-0.783 -0.232,0 -0.513,0.485 -0.653,0.783 l -5.972,12.605 C -16.949,-0.844 -18.13,0 -19.539,0 h -3.451 l 9.417,-18.238 c 0.932,-1.791 2.844,-1.753 3.823,-1.753 1.353,0 2.938,0.074 3.776,1.753 L 3.444,0 Z"
             style="fill:#ec1b2e;fill-opacity:1;fill-rule:nonzero;stroke:none"
             id="path880" />
        </g>
        <g
           id="g882"
           transform="translate(532.527,772.519)">
          <path
             d="M 0,0 C 0,0.889 -0.72,1.61 -1.61,1.61 H -3.844 C -4.733,1.61 -5.455,0.889 -5.455,0 v -16.345 c 0,-2.499 0.886,-3.952 2.471,-4.997 1.539,-1.007 3.31,-1.455 6.621,-1.455 H 5.43 c 0.889,0 1.61,0.722 1.61,1.61 v 1.747 H 5.688 c -0.98,0 -3.03,0.038 -4.243,0.858 C -0.14,-17.538 0,-15.672 0,-14.331 Z"
             style="fill:#ec1b2e;fill-opacity:1;fill-rule:nonzero;stroke:none"
             id="path884" />
        </g>
        <g
           id="g886"
           transform="translate(497.608,753.079)">
          <path
             d="M 0,0 C -0.98,0 -3.031,0.037 -4.243,0.858 -5.828,1.902 -5.688,3.767 -5.688,5.11 v 7.944 h 5.29 c 0.888,0 1.609,0.72 1.609,1.611 v 1.746 h -6.899 v 3.029 c 0,0.89 -0.722,1.61 -1.61,1.61 h -2.235 c -0.888,0 -1.61,-0.72 -1.61,-1.61 v -3.029 h -11.375 v 3.029 c 0,0.89 -0.721,1.61 -1.61,1.61 h -2.234 c -0.889,0 -1.611,-0.72 -1.611,-1.61 v -3.029 h -3.403 v -1.746 c 0,-0.891 0.721,-1.611 1.61,-1.611 h 1.793 V 3.096 c 0,-2.499 0.886,-3.953 2.471,-4.997 1.539,-1.008 3.311,-1.455 6.621,-1.455 h 1.793 c 0.889,0 1.61,0.72 1.61,1.609 V 0 h -1.352 c -0.98,0 -3.03,0.037 -4.243,0.858 -1.585,1.044 -1.445,2.909 -1.445,4.252 v 7.944 h 11.375 V 3.096 c 0,-2.499 0.886,-3.953 2.471,-4.997 1.539,-1.008 3.31,-1.455 6.62,-1.455 h 1.794 c 0.888,0 1.61,0.72 1.61,1.609 V 0 Z"
             style="fill:#ec1b2e;fill-opacity:1;fill-rule:nonzero;stroke:none"
             id="path888" />
        </g>
        <g
           id="g890"
           transform="translate(464.227,751.332)">
          <path
             d="m 0,0 v 1.747 h -12.074 c -2.005,0 -4.289,0.223 -4.988,2.349 -0.188,0.597 -0.327,1.865 -0.327,2.722 H -3.03 c 0.979,0 1.911,0.151 2.657,0.747 1.026,0.82 1.166,1.977 1.166,2.983 0,2.499 -0.607,4.961 -3.497,6.415 -2.284,1.157 -5.267,1.269 -8.158,1.269 -2.331,0 -6.527,0 -9.231,-1.866 -2.704,-1.864 -2.937,-4.586 -2.937,-8.279 0,-2.61 0.139,-5.333 1.771,-7.198 2.052,-2.312 5.035,-2.499 7.552,-2.499 H -1.61 C -0.72,-1.61 0,-0.889 0,0 m -4.848,11.332 c 0,-0.522 -0.14,-1.156 -1.212,-1.156 h -7.758 c -1.973,0 -3.571,-0.902 -3.571,-2.014 v 2.014 c 0.046,1.305 0,2.387 1.119,3.393 1.492,1.344 3.729,1.306 5.174,1.306 1.539,0 3.311,-0.075 4.663,-0.895 0.792,-0.485 1.585,-1.417 1.585,-2.648"
             style="fill:#ec1b2e;fill-opacity:1;fill-rule:nonzero;stroke:none"
             id="path892" />
        </g>
        <g
           id="g894"
           transform="translate(523.202,751.332)">
          <path
             d="m 0,0 v 1.747 h -12.074 c -2.005,0 -4.289,0.223 -4.988,2.349 -0.188,0.597 -0.327,1.865 -0.327,2.722 H -3.03 c 0.979,0 1.911,0.151 2.657,0.747 1.025,0.82 1.166,1.977 1.166,2.983 0,2.499 -0.607,4.961 -3.497,6.415 -2.284,1.157 -5.267,1.269 -8.158,1.269 -2.332,0 -6.527,0 -9.231,-1.866 -2.704,-1.864 -2.937,-4.586 -2.937,-8.279 0,-2.61 0.139,-5.333 1.771,-7.198 2.052,-2.312 5.035,-2.499 7.552,-2.499 H -1.61 C -0.721,-1.61 0,-0.889 0,0 m -4.848,11.332 c 0,-0.522 -0.14,-1.156 -1.212,-1.156 h -7.758 c -1.972,0 -3.571,-0.902 -3.571,-2.014 v 2.014 c 0.046,1.305 0,2.387 1.119,3.393 1.491,1.344 3.73,1.306 5.174,1.306 1.539,0 3.311,-0.075 4.662,-0.895 0.793,-0.485 1.586,-1.417 1.586,-2.648"
             style="fill:#ec1b2e;fill-opacity:1;fill-rule:nonzero;stroke:none"
             id="path896" />
        </g>
        <g
           id="g898"
           transform="translate(436.509,775.021)">
          <path
             d="m 0,0 h -2.234 c -0.889,0 -1.611,-0.721 -1.611,-1.61 v -0.446 -3.476 h 0.022 c 0.155,0.913 1.194,1.865 2.705,1.865 H 0 c 0.889,0 1.61,0.722 1.61,1.611 V -1.61 C 1.61,-0.721 0.889,0 0,0"
             style="fill:#ec1b2e;fill-opacity:1;fill-rule:nonzero;stroke:none"
             id="path900" />
        </g>
      </g>
    </g>
  </g>
</svg>
